<svg width="16" height="16" viewBox="0 0 16 16" fill="none" xmlns="http://www.w3.org/2000/svg">
<path d="M5.25 15.5C4.8375 15.5 4.4845 15.3533 4.191 15.0597C3.8975 14.7662 3.7505 14.413 3.75 14C3.7495 13.587 3.8965 13.234 4.191 12.941C4.4855 12.648 4.8385 12.501 5.25 12.5C5.6615 12.499 6.01475 12.646 6.30975 12.941C6.60475 13.236 6.7515 13.589 6.75 14C6.7485 14.411 6.60175 14.7642 6.30975 15.0597C6.01775 15.3553 5.6645 15.502 5.25 15.5ZM12.75 15.5C12.3375 15.5 11.9845 15.3533 11.691 15.0597C11.3975 14.7662 11.2505 14.413 11.25 14C11.2495 13.587 11.3965 13.234 11.691 12.941C11.9855 12.648 12.3385 12.501 12.75 12.5C13.1615 12.499 13.5148 12.646 13.8097 12.941C14.1047 13.236 14.2515 13.589 14.25 14C14.2485 14.411 14.1018 14.7642 13.8097 15.0597C13.5177 15.3553 13.1645 15.502 12.75 15.5ZM4.6125 3.5L6.4125 7.25H11.6625L13.725 3.5H4.6125ZM3.9 2H14.9625C15.25 2 15.4688 2.12825 15.6188 2.38475C15.7688 2.64125 15.775 2.9005 15.6375 3.1625L12.975 7.9625C12.8375 8.2125 12.6532 8.40625 12.4222 8.54375C12.1912 8.68125 11.938 8.75 11.6625 8.75H6.075L5.25 10.25H14.25V11.75H5.25C4.6875 11.75 4.2625 11.5033 3.975 11.0098C3.6875 10.5163 3.675 10.0255 3.9375 9.5375L4.95 7.7L2.25 2H0.75V0.5H3.1875L3.9 2Z" fill="black"/>
</svg>
